<svg width="160" height="33" viewBox="0 0 160 33" fill="none" xmlns="http://www.w3.org/2000/svg">
<g clip-path="url(#clip0_263_1866)">
<path fill-rule="evenodd" clip-rule="evenodd" d="M27.2838 6.88564C27.9377 6.65722 28.6163 6.5243 29.3124 6.5243H44.2122C44.8964 6.5243 45.5679 6.65305 46.1991 6.90508C46.7539 6.65203 47.3565 6.5243 47.9725 6.5243H53.9098C55.1555 6.5243 56.2808 7.03773 57.0927 7.95436L58.4529 7.13477C59.1359 6.7233 59.8484 6.5243 60.6388 6.5243H67.4526C67.9162 6.5243 68.3751 6.59831 68.8133 6.74531C69.3283 6.60347 69.8564 6.5243 70.393 6.5243H85.2929C86.379 6.5243 87.4274 6.84867 88.3313 7.4669C88.4073 7.43514 88.4845 7.40539 88.5628 7.37758C91.9921 6.15851 95.4637 5.04568 98.9908 4.16964C100.956 3.68161 103.016 3.2031 105.036 3.06936C105.377 3.04674 105.721 3.06249 106.059 3.12064H106.493C106.788 3.12064 107.071 3.15023 107.361 3.21139C108.934 3.54336 110.402 4.39878 111.403 5.69095C112.149 5.69447 112.921 5.82439 113.637 6.00829C114.617 5.68349 115.68 5.73197 116.642 6.14808L117.532 6.53325C119.193 5.46426 121.18 4.63462 123.126 4.72677C123.635 4.75087 124.134 4.8528 124.621 4.99786C125.346 4.84124 126.087 4.88473 126.782 5.11334C126.932 4.89019 127.089 4.67209 127.252 4.45681C127.408 4.25029 127.606 4.03192 127.746 3.81489C128.168 3.07872 128.72 2.50136 129.374 1.98087C129.462 1.91038 129.556 1.84395 129.647 1.77477C132.226 -1.48832 138.307 -0.0600117 138.542 4.49096C139.485 4.45176 140.41 4.66336 141.281 5.23806C141.627 5.04908 141.979 4.87229 142.336 4.70783C144.146 3.87489 146.444 3.20749 148.435 3.29484C150.371 3.37983 152.255 4.11773 153.339 5.86165C154.135 7.14199 154.319 8.72177 153.935 10.1731C153.938 10.1975 153.941 10.2219 153.944 10.2464C154.565 11.0261 154.914 11.9875 154.952 12.9745C156.022 13.1988 157.001 13.7416 157.771 14.587C158.787 15.7021 159.244 17.1469 159.244 18.6624V20.7558C159.244 20.9395 159.233 21.1228 159.211 21.3047C159.503 21.9178 159.657 22.5933 159.657 23.2841V25.8064C159.657 27.6755 158.536 29.3161 156.913 29.9822C156.269 31.6605 154.683 32.8198 152.875 32.8198C105.13 32.8198 57.3848 32.8198 9.63939 32.8198C7.83222 32.8198 6.24591 31.6605 5.60191 29.9822C3.97911 29.3161 2.85816 27.6755 2.85816 25.8064V23.2841C2.85816 22.4384 3.0879 21.6163 3.51983 20.9041C3.58972 20.6577 3.67962 20.4177 3.78758 20.1862L4.51003 18.6371C3.06285 18.5775 1.79477 17.8184 1.01743 16.538C0.21049 15.2088 0.124498 13.6122 0.783751 12.1986L2.2455 9.06428C2.98161 7.48593 4.46238 6.5243 6.15673 6.5243H25.552C26.1531 6.5243 26.7404 6.64443 27.2838 6.88564Z" fill="#FF0000"/>
<path fill-rule="evenodd" clip-rule="evenodd" d="M157.737 21.5628C158.064 22.0528 158.255 22.646 158.255 23.284V25.8064C158.255 27.318 157.18 28.5782 155.78 28.81C155.555 30.2581 154.337 31.3705 152.875 31.3705C105.592 31.3705 57.2097 31.3705 9.63923 31.3705C8.17765 31.3705 6.95921 30.2581 6.73503 28.81C5.33492 28.5782 4.25931 27.318 4.25931 25.8064V23.284C4.25931 22.6217 4.46581 22.0076 4.81564 21.5071C4.86592 21.274 4.94386 21.0425 5.04959 20.8158L6.7398 17.1916H4.69483C3.65315 17.1916 2.75797 16.6797 2.20403 15.7673C1.6501 14.8549 1.59323 13.7986 2.04577 12.8282L3.50752 9.69388C4.00992 8.61663 5.00014 7.97358 6.15658 7.97358H25.5519C26.161 7.97358 26.72 8.14861 27.19 8.47641C27.2341 8.45659 27.2784 8.43715 27.3228 8.41807C27.9561 8.14638 28.6234 7.97358 29.3122 7.97358H44.2121C44.9354 7.97358 45.633 8.16467 46.254 8.53315C46.7388 8.17202 47.3299 7.97358 47.9724 7.97358H53.9097C54.9513 7.97358 55.8465 8.48544 56.4004 9.39782C56.4993 9.5606 56.5823 9.72798 56.6494 9.89862L59.1582 8.38702C59.6282 8.10383 60.0946 7.97358 60.6386 7.97358H67.4524C67.9193 7.97358 68.3613 8.08187 68.7542 8.27944C69.2815 8.08898 69.8299 7.97358 70.3929 7.97358H85.2927C86.1332 7.97358 86.9389 8.23159 87.6301 8.72608C87.8307 8.86951 88.0188 9.02802 88.1933 9.20044C88.4388 9.00466 88.7054 8.85927 89.0181 8.74812C92.3956 7.54747 95.8437 6.44172 99.3179 5.57884C101.148 5.12438 103.243 4.6403 105.125 4.51567C105.405 4.49711 105.674 4.51534 105.931 4.56991H106.493C106.7 4.56991 106.877 4.58841 107.081 4.63138C108.673 4.96744 109.992 5.92028 110.702 7.19019C111.583 7.04747 112.704 7.22978 113.717 7.53029C114.445 7.17594 115.304 7.14031 116.101 7.48499L117.677 8.16747C119.394 6.93994 121.335 6.09029 123.061 6.17451C123.58 6.19664 124.095 6.33436 124.589 6.50525C125.441 6.21379 126.371 6.34479 127.151 6.89742C127.164 6.90708 127.178 6.91674 127.192 6.92649C127.262 6.89415 127.334 6.86483 127.406 6.83859C127.667 6.30614 128 5.82052 128.356 5.3491C128.537 5.11024 128.779 4.83128 128.936 4.58015C129.269 3.99044 129.71 3.5418 130.229 3.12898C130.355 3.02842 130.514 2.9187 130.644 2.80881C132.372 0.40153 137.232 1.28075 137.146 4.86095C137.134 5.36301 136.988 5.88388 136.749 6.36716C138.063 5.85698 139.465 5.64903 140.716 6.59369L141.192 6.95273C141.743 6.61025 142.316 6.30312 142.906 6.03195C144.499 5.29889 146.615 4.66552 148.375 4.7428C152.212 4.91127 153.26 7.86514 152.491 10.0926C152.552 10.339 152.582 10.5943 152.579 10.8575C153.491 11.7297 153.816 13.1079 153.33 14.3297C153.487 14.3136 153.645 14.3059 153.804 14.3059C154.924 14.3059 155.977 14.7305 156.751 15.5808C157.521 16.4255 157.842 17.5209 157.842 18.6623V20.7558C157.842 21.035 157.806 21.3056 157.737 21.5628Z" fill="#000066"/>
<path fill-rule="evenodd" clip-rule="evenodd" d="M81.2571 28.4745H23.2784C22.2589 28.4745 21.3835 27.9518 20.8738 27.0387L18.7778 23.2841H81.2571H143.736L141.64 27.0387C141.131 27.9519 140.255 28.4745 139.236 28.4745H81.2571Z" fill="#FF0000"/>
<path d="M139.095 19.4785H140.41V20.7558H139.095V19.4785ZM143.557 19.4529L144.73 19.5877C144.664 19.8412 144.559 20.0605 144.411 20.2466C144.264 20.4316 144.075 20.5761 143.845 20.6788C143.617 20.7815 143.325 20.8328 142.971 20.8328C142.629 20.8328 142.345 20.7997 142.117 20.7344C141.89 20.6681 141.695 20.5611 141.53 20.4135C141.367 20.2669 141.239 20.0936 141.146 19.8947C141.053 19.6957 141.006 19.4325 141.006 19.1041C141.006 18.7619 141.063 18.4762 141.176 18.2483C141.258 18.0804 141.372 17.9306 141.516 17.798C141.66 17.6654 141.807 17.5659 141.959 17.5017C142.2 17.399 142.508 17.3477 142.883 17.3477C143.41 17.3477 143.81 17.445 144.086 17.6386C144.362 17.8333 144.556 18.1168 144.668 18.4902L143.507 18.6506C143.471 18.5083 143.405 18.4013 143.308 18.3286C143.212 18.2569 143.083 18.2206 142.921 18.2206C142.717 18.2206 142.551 18.2965 142.424 18.4473C142.298 18.5992 142.235 18.8282 142.235 19.1363C142.235 19.4101 142.298 19.6176 142.423 19.7599C142.548 19.9021 142.708 19.9728 142.902 19.9728C143.063 19.9728 143.2 19.93 143.31 19.8454C143.42 19.7599 143.502 19.6294 143.557 19.4529ZM145.145 19.0999C145.145 18.5907 145.311 18.1713 145.642 17.8418C145.973 17.5124 146.42 17.3477 146.982 17.3477C147.627 17.3477 148.113 17.5413 148.442 17.9285C148.706 18.2409 148.838 18.625 148.838 19.0806C148.838 19.5941 148.674 20.0134 148.347 20.3418C148.019 20.6692 147.565 20.8328 146.985 20.8328C146.469 20.8328 146.051 20.697 145.733 20.4242C145.341 20.0873 145.145 19.6455 145.145 19.0999ZM146.38 19.0977C146.38 19.3962 146.438 19.6166 146.554 19.7588C146.67 19.9011 146.815 19.9728 146.991 19.9728C147.167 19.9728 147.312 19.9021 147.426 19.762C147.54 19.6219 147.597 19.3962 147.597 19.0859C147.597 18.796 147.54 18.5811 147.425 18.4387C147.31 18.2976 147.168 18.227 146.999 18.227C146.82 18.227 146.672 18.2987 146.555 18.442C146.438 18.5864 146.38 18.8046 146.38 19.0977ZM149.446 17.4247H150.596V17.9092C150.762 17.706 150.929 17.5616 151.098 17.476C151.266 17.3904 151.47 17.3477 151.709 17.3477C151.966 17.3477 152.168 17.3947 152.318 17.4888C152.468 17.583 152.59 17.7231 152.686 17.9092C152.879 17.6921 153.055 17.5434 153.214 17.4653C153.373 17.3872 153.57 17.3477 153.804 17.3477C154.148 17.3477 154.417 17.4536 154.61 17.6664C154.804 17.8782 154.901 18.211 154.901 18.6623V20.7558H153.666V18.8527C153.666 18.7008 153.638 18.5885 153.581 18.5158C153.5 18.4003 153.396 18.3425 153.274 18.3425C153.129 18.3425 153.012 18.3971 152.923 18.5061C152.836 18.6153 152.791 18.7907 152.791 19.0314V20.7558H151.556V18.9201C151.556 18.7736 151.548 18.6741 151.531 18.6217C151.505 18.5383 151.46 18.4709 151.395 18.4195C151.331 18.3682 151.254 18.3425 151.167 18.3425C151.025 18.3425 150.909 18.3981 150.818 18.5083C150.727 18.6196 150.681 18.8014 150.681 19.0549V20.7558H149.446V17.4247Z" fill="white"/>
<path fill-rule="evenodd" clip-rule="evenodd" d="M133.002 4.64515C132.597 5.23948 131.772 5.57529 131.474 6.11702C131.141 6.70437 130.303 7.55441 129.965 8.35586C129.851 8.62269 129.984 8.99414 130.269 8.96707C130.625 8.93259 131.149 7.85737 131.368 7.57961C131.991 6.79326 132.936 5.89068 133.765 5.42617C133.872 5.37297 134.202 4.95705 134.206 4.78493C134.215 4.40006 133.041 4.47086 133.002 4.64515ZM102.121 14.2503L102.124 14.2515L102.123 14.2497L102.121 14.2503ZM124.808 21.5494C122.956 21.75 122.64 21.4066 123.627 20.8046C127.542 18.4033 138.07 15.9801 141.132 15.3547C133.69 20.1858 127.865 21.1446 124.808 21.5494ZM149.907 13.0557L145.906 13.5956L149.635 10.8602L148.692 9.63173C146.07 10.8525 141.472 13.364 140.669 13.068C139.836 12.6421 145.768 8.59397 148.391 8.6928C149.005 8.72083 148.663 9.50188 149.181 9.5183C149.764 9.55047 150.582 7.88789 148.25 7.78193C146.502 7.7088 141.902 8.94555 139.347 12.7551C139.347 12.7551 137.055 13.7243 136.597 13.8999C137.097 13.302 139.546 11.1959 139.976 10.8245C140.376 10.4121 140.674 10.1413 139.809 9.67502L138.982 9.05082C138.728 8.85597 138.107 9.06891 137.451 9.35263C136.698 9.6891 134.5 10.7812 133.544 11.4014C134.271 10.8474 134.969 10.1202 134.969 10.1202C134.969 10.1202 134.148 9.20936 133.345 8.93492C132.899 9.94577 129.862 12.2409 128.207 13.6542C128.202 13.8525 129.282 14.7604 129.99 14.9997C130.881 14.32 136.919 9.88744 138.021 9.93537C138.506 9.99903 134.954 13.4429 133.629 14.6486C133.629 14.6486 134.772 15.638 135.031 15.6572C135.682 15.5279 138.36 13.3564 139.105 13.3723C139.355 13.7442 139.666 14.3299 140.806 14.0883C141.847 13.9437 143.583 13.1821 145.324 12.1782L142.651 14.2182C138.972 14.8803 132.232 16.1029 125.752 18.6863C123.199 19.7248 120.723 21.5915 122.722 22.0583C124.72 22.5473 136.106 20.8549 144.751 14.4995C144.751 14.4995 149.7 13.5817 150.321 13.3675C150.975 13.1073 150.396 12.9206 149.907 13.0557ZM114.257 11.4149C113.7 11.6669 111.751 13.2189 110.5 14.021C109.346 14.8143 106.921 15.928 106.243 15.7958C105.889 15.6977 107.65 13.8999 108.941 12.8076C110.032 11.8886 111.703 11.1334 113.226 11.1626C113.841 11.1908 114.267 11.0182 114.011 10.8666C113.658 10.7028 111.859 10.0407 111.143 10.198C108.176 10.9018 104.431 14.3205 103.914 15.6023C104.388 16.1064 105.891 16.9735 107.123 16.9425C107.968 16.8389 110.687 14.3112 112.523 13.4295C111.554 14.6458 110.783 15.7093 110.345 16.4119L112.604 16.8097C112.935 16.5352 114.814 15.2547 115.899 14.5996C115.798 14.7417 115.58 15.7303 115.607 15.9701C115.817 16.6535 117.914 17.0893 119.474 16.9166C120.385 16.7845 122.415 15.9064 123.801 14.871C125.1 16.1539 126.027 15.3383 126.915 14.8125C127.476 14.4065 127.323 14.0034 126.732 14.3246C125.81 14.919 125.847 14.7178 126.281 14.1924C127.014 13.3734 130.223 10.6877 130.223 10.6877L128.366 9.72295C123.914 14.2439 121.706 15.7333 119.653 16.1955C116.919 16.657 118.016 15.5174 118.361 14.6704C119.558 12.1576 122.397 10.3557 123.377 10.3136L123.853 9.46084C123.505 9.33179 123.146 9.2202 122.933 9.2135C121.184 9.11866 117.825 11.3346 116.274 13.8162C115.847 14.0772 113.845 15.0844 113.845 15.0844C113.917 14.7908 115.401 12.3825 116.794 11.0825L114.965 10.2911L114.257 11.4149ZM123.62 11.0193C123.505 11.402 123.281 11.844 123.123 12.077C123.123 12.077 123.115 12.4075 123.571 12.342C124.325 11.9835 126.202 10.7461 126.343 10.2705C126.445 10.0846 125.489 9.40703 125.489 9.40703L125.093 9.68314L125.048 9.72885C124.759 10.0265 124.469 10.3244 124.177 10.6188C124.097 10.6987 124.018 10.7791 123.936 10.857C123.912 10.8803 123.887 10.9039 123.862 10.9254C123.833 10.9496 123.803 10.9697 123.769 10.9856C123.721 11.0083 123.67 11.0191 123.62 11.0193ZM93.4685 11.8594L94.2615 12.597L91.4389 15.3987C96.9104 14.3205 106.846 10.9643 106.652 9.55327C106.417 8.56463 99.1915 9.76736 93.4685 11.8594ZM106.492 7.61176C107.634 7.85278 108.857 8.77837 108.062 10.2307C106.566 13.1691 98.0648 14.847 93.8565 15.9574C102.057 15.9574 108.054 17.3367 109.786 18.0932C112.031 19.1087 112.034 20.3179 111.126 21.7037C110.689 22.3397 110.375 21.8856 110.159 21.4668C106.589 17.5883 93.9278 17.0502 90.2037 16.9039C89.7716 17.3415 88.4995 19.0256 88.22 19.8662C88.22 19.8662 89.1379 19.4264 89.3704 19.2059C90.0916 18.8502 90.6765 18.8157 90.1788 19.3035C89.3212 19.9143 87.9676 20.9245 87.3637 21.7745C87.2789 21.2557 84.1526 21.8646 84.8432 20.0828C84.9857 19.5627 87.384 16.8898 87.384 16.8898C86.6373 16.9395 85.7613 16.9583 86.0321 16.4926C86.2992 16.1585 87.4033 16.0737 88.0491 16.1649C88.6454 15.6461 90.6805 13.2277 91.1178 12.5702L88.3444 13.3436L89.9741 11.6248C98.2254 8.69154 103.358 7.68077 105.313 7.55128V7.61176H106.492ZM122.978 11.0445C122.98 11.0445 122.982 11.0434 122.984 11.0434L122.984 11.0421L122.978 11.0445Z" fill="#FFFF00"/>
<path fill-rule="evenodd" clip-rule="evenodd" d="M130.242 8.65894C130.361 8.59147 130.592 8.2461 130.658 8.14431C130.748 8.00568 130.833 7.86406 130.919 7.72306C130.987 7.61125 131.059 7.48857 131.14 7.3864C131.78 6.57836 132.734 5.65722 133.622 5.15912C133.68 5.11267 133.805 4.9543 133.871 4.84145C133.701 4.795 133.36 4.80461 133.224 4.84798C132.997 5.16938 132.681 5.41063 132.375 5.64633C132.165 5.80887 131.863 6.0321 131.73 6.26975C131.522 6.64147 131.213 7.00705 130.955 7.34593C130.695 7.68675 130.403 8.07958 130.235 8.47806C130.217 8.5193 130.212 8.61848 130.242 8.65894ZM123.154 21.8152C123.089 21.7916 123.031 21.7629 122.984 21.7283C122.741 21.5522 122.729 21.2619 122.897 21.0243C123.033 20.8303 123.279 20.6632 123.476 20.5421C124.045 20.1937 124.654 19.8966 125.261 19.6269C125.991 19.3026 126.737 19.0124 127.486 18.7408C129.173 18.1295 130.898 17.6044 132.622 17.12C134.269 16.6573 135.927 16.232 137.59 15.8354C138.747 15.5593 139.91 15.2934 141.075 15.0554L142.641 14.7357L141.289 15.6132C138.201 17.6179 134.898 19.2777 131.414 20.4031C130.567 20.6764 129.712 20.9174 128.849 21.125C129.63 20.9529 130.405 20.7579 131.168 20.5468C135.861 19.2491 140.612 17.168 144.58 14.2509L144.634 14.2113L144.699 14.1992C145.504 14.0503 146.309 13.8968 147.113 13.7405L144.767 14.057L149.211 10.7977L148.604 10.0079C147.923 10.329 147.247 10.666 146.572 11.0005C145.758 11.4042 144.943 11.8088 144.12 12.1963C143.426 12.5237 142.71 12.8533 141.99 13.1154C141.634 13.2452 140.941 13.4923 140.57 13.3554L140.553 13.3494L140.538 13.3415C140.235 13.1867 140.25 12.8579 140.401 12.5968C140.534 12.3661 140.766 12.1387 140.96 11.9615C141.251 11.6957 141.567 11.4505 141.885 11.2198C142.274 10.9375 142.675 10.6719 143.083 10.4202C144.445 9.57928 146.831 8.32639 148.402 8.38797C148.723 8.40051 148.944 8.56399 149.058 8.87188C149.079 8.93008 149.139 9.164 149.167 9.21121C149.174 9.2127 149.184 9.21319 149.19 9.21338L149.196 9.21366C149.254 9.21681 149.349 9.12183 149.382 9.08082C149.462 8.98018 149.518 8.84292 149.514 8.71099C149.497 8.19411 148.579 8.10173 148.238 8.08674C147.694 8.06289 147.074 8.16693 146.545 8.2887C145.75 8.47159 144.965 8.7478 144.221 9.08993C142.39 9.93248 140.738 11.216 139.589 12.929L139.539 13.0031L139.459 13.0373C139.402 13.0615 139.345 13.0856 139.288 13.1096L139.347 13.1982C139.473 13.3856 139.586 13.5774 139.778 13.7018C140.061 13.8845 140.435 13.8555 140.747 13.7894L140.757 13.7873L140.767 13.786C141.394 13.6989 142.107 13.4224 142.69 13.1735C143.541 12.8098 144.376 12.3755 145.181 11.9117L145.422 11.7723L145.722 12.2537L142.77 14.5064L142.701 14.5188C140.224 14.9646 137.767 15.4357 135.317 16.0242C132.113 16.7936 128.927 17.7406 125.859 18.9708C125.244 19.2173 124.638 19.5094 124.064 19.8445C123.606 20.1116 123.116 20.4331 122.729 20.8023C122.597 20.9281 122.281 21.2573 122.288 21.4628C122.294 21.6308 122.675 21.7341 122.788 21.761C122.9 21.7877 123.024 21.8047 123.154 21.8152ZM139.778 10.5988C139.844 10.5304 140.054 10.3193 140.072 10.2448C140.038 10.1529 139.746 9.9848 139.673 9.94551L139.653 9.93495L138.809 9.29738C138.744 9.25385 138.49 9.30474 138.421 9.32143C138.134 9.39086 137.838 9.51406 137.567 9.63336C136.941 9.90887 136.313 10.2285 135.705 10.5422C135.331 10.7347 134.959 10.9314 134.591 11.1353C134.292 11.3013 133.989 11.473 133.701 11.6598L133.461 11.8161L133.141 11.3302L133.369 11.1559C133.703 10.9014 134.022 10.6194 134.328 10.33C134.403 10.2599 134.477 10.189 134.55 10.1171C134.244 9.81841 133.844 9.49956 133.472 9.31709C133.283 9.60835 133.009 9.89901 132.793 10.1176C132.358 10.5599 131.887 10.9757 131.418 11.3784C130.492 12.1729 129.534 12.9264 128.603 13.7129C128.755 13.8671 128.997 14.0604 129.094 14.1339C129.338 14.3187 129.65 14.5301 129.944 14.6564C130.39 14.3193 130.845 13.9906 131.297 13.6645C132.112 13.0778 132.934 12.5004 133.765 11.9392C134.586 11.3851 135.426 10.8336 136.284 10.3438C136.685 10.1152 137.572 9.6105 138.033 9.63054L138.046 9.63108L138.058 9.63273C138.233 9.65574 138.359 9.79947 138.361 9.98241C138.362 10.0782 138.329 10.168 138.286 10.2512C138.2 10.4154 138.067 10.5831 137.951 10.7256C137.568 11.1957 137.133 11.6472 136.711 12.0803C136.198 12.6078 135.673 13.1251 135.143 13.6357C134.793 13.9731 134.441 14.3091 134.084 14.6391C134.18 14.7184 134.276 14.7964 134.373 14.8732C134.495 14.9695 134.863 15.2609 135.035 15.3407C135.223 15.2745 135.548 15.0678 135.685 14.9823C136.086 14.7315 136.479 14.4639 136.874 14.2031C136.99 14.1267 137.106 14.0502 137.223 13.9742C137.049 14.0464 136.874 14.1188 136.699 14.186L135.621 14.5992L136.374 13.7003C136.579 13.4545 136.844 13.2119 137.077 12.9933C137.42 12.6721 137.77 12.3578 138.121 12.0459C138.669 11.5585 139.223 11.0781 139.778 10.5988ZM110.042 14.6656C109.888 14.7545 109.733 14.84 109.579 14.9226C109.164 15.1445 108.738 15.3506 108.307 15.537C107.813 15.7506 106.721 16.1995 106.189 16.0956L106.178 16.0935L106.167 16.0905C105.951 16.0307 105.862 15.8138 105.921 15.6005C105.953 15.4828 106.024 15.3653 106.092 15.2657C106.283 14.9845 106.532 14.7096 106.762 14.4623C107.379 13.7997 108.065 13.153 108.754 12.5713C109.917 11.5893 111.61 10.859 113.135 10.8568C112.453 10.6297 111.582 10.408 111.208 10.4956C109.676 10.8538 108.02 11.9308 106.79 12.9206C106.183 13.4094 105.588 13.9469 105.058 14.5247C104.822 14.7818 104.474 15.1806 104.277 15.5329C104.586 15.7965 105.03 16.0427 105.356 16.1952C105.881 16.4411 106.52 16.6485 107.1 16.6379C107.531 16.5685 108.91 15.5053 109.279 15.2301C109.533 15.0414 109.786 14.8524 110.042 14.6656ZM111.948 13.3893C112.097 13.3051 112.247 13.2256 112.399 13.1527L113.576 12.5878L112.751 13.6235C112.314 14.1723 111.885 14.7292 111.471 15.297C111.258 15.5895 111.045 15.887 110.843 16.1901L112.526 16.4865C112.661 16.3831 112.804 16.2841 112.94 16.1886C113.227 15.9864 113.517 15.7881 113.808 15.5919C114.12 15.3811 114.435 15.1706 114.752 14.964C114.493 15.0962 114.234 15.2277 113.975 15.3586L113.403 15.6474L113.559 15.0096C113.604 14.8289 113.794 14.5189 113.889 14.3581C114.107 13.9918 114.342 13.6332 114.584 13.2833C115.077 12.5712 115.649 11.8179 116.263 11.1836L115.078 10.6707L114.456 11.6578L114.375 11.6943C114.182 11.7818 113.951 11.948 113.775 12.0695C113.449 12.294 113.129 12.528 112.809 12.7611C112.523 12.9693 112.236 13.1805 111.948 13.3893ZM116.64 13.7995L116.975 13.5968L116.143 14.7715C116.065 14.9286 115.903 15.6806 115.899 15.904C115.953 16.0065 116.132 16.1149 116.216 16.1597C116.484 16.3032 116.805 16.3987 117.099 16.4667C117.83 16.6361 118.691 16.6958 119.438 16.6138C119.705 16.5744 119.99 16.4855 120.246 16.3974C120.617 16.2698 120.983 16.1179 121.339 15.9538C122.124 15.5929 122.932 15.1439 123.629 14.6237L123.828 14.4751L124.005 14.6504C124.41 15.0498 124.876 15.346 125.452 15.2214C125.648 15.179 125.842 15.0943 126.031 14.9925C125.957 14.9932 125.884 14.9732 125.817 14.9191C125.628 14.7671 125.681 14.5363 125.788 14.3574C125.864 14.2308 125.963 14.1075 126.057 13.9943L126.061 13.9897L126.065 13.9852C126.35 13.6667 126.694 13.3588 127.009 13.0721C127.445 12.6765 127.887 12.2888 128.332 11.9041C128.78 11.5163 129.23 11.1306 129.683 10.7485L128.422 10.0934C127.506 11.0201 126.574 11.9341 125.609 12.8062C124.863 13.4812 124.091 14.1396 123.28 14.7306C122.189 15.5264 121.032 16.1975 119.716 16.4936L119.708 16.4953L119.701 16.4966C119.255 16.5718 118.641 16.6599 118.193 16.5706C117.864 16.5048 117.585 16.3172 117.558 15.9466C117.525 15.4957 117.922 14.9635 118.089 14.5519L118.093 14.5437L118.097 14.5356C118.696 13.2774 119.699 12.1635 120.772 11.3224C121.338 10.8787 122.418 10.1518 123.197 10.0264L123.418 9.62971C123.243 9.57275 123.056 9.52262 122.924 9.51845L122.918 9.51818C121.911 9.46358 120.507 10.2488 119.692 10.8035C118.562 11.5727 117.415 12.633 116.64 13.7995ZM123.496 12.0416C123.715 11.9339 123.934 11.8048 124.142 11.6776C124.433 11.4998 124.72 11.3113 124.999 11.1136C125.252 10.934 125.508 10.7425 125.741 10.5345C125.797 10.4836 125.948 10.3443 126.023 10.2447C125.913 10.1162 125.663 9.91491 125.484 9.77844L125.281 9.91993L125.256 9.94513C124.966 10.2437 124.676 10.5422 124.383 10.8374C124.301 10.9192 124.22 11.0011 124.137 11.0809C124.108 11.1087 124.079 11.1364 124.048 11.1622C123.999 11.2029 123.948 11.2371 123.891 11.2637C123.876 11.2708 123.86 11.2773 123.844 11.2832C123.755 11.5355 123.63 11.8072 123.496 12.0416ZM106.462 7.91684H105.018V7.88102C104.445 7.93488 103.864 8.0297 103.302 8.1305C102.22 8.32475 101.142 8.568 100.073 8.83331C98.5924 9.20111 97.1212 9.61673 95.6602 10.0617C93.8056 10.6266 91.9645 11.2408 90.1359 11.8899L89.3134 12.7574L91.8153 12.0597L91.3609 12.7431C91.1818 13.0123 90.9665 13.2787 90.7651 13.5307C90.4708 13.8989 90.1695 14.2618 89.8648 14.6208C89.5597 14.9803 89.2503 15.3371 88.9337 15.6857C88.7176 15.9237 88.4804 16.1884 88.239 16.3984L88.1389 16.4855L88.0092 16.4672C87.6697 16.4193 87.2769 16.4269 86.936 16.4719C86.8366 16.4851 86.5902 16.5272 86.4193 16.5923C86.7059 16.6264 87.1977 16.5965 87.3651 16.5854L88.1044 16.5361L87.6002 17.0975C87.1909 17.5531 86.7877 18.0187 86.3928 18.4875C86.1024 18.8322 85.8131 19.1821 85.5404 19.542C85.4513 19.6596 85.1676 20.0312 85.1269 20.1663L85.1228 20.1814L85.117 20.1963C85.0405 20.3938 84.9767 20.6409 85.1411 20.8088C85.3064 20.9777 85.6451 21.0599 85.8665 21.1023C86.202 21.1667 86.5418 21.1898 86.8789 21.2399C87.013 21.2598 87.1753 21.2866 87.3173 21.3452C87.6604 20.9299 88.0944 20.543 88.4908 20.212C88.6524 20.0771 88.8164 19.9452 88.9823 19.8157C88.9345 19.8416 88.8888 19.8658 88.8469 19.8881C88.6814 19.9762 88.5133 20.0618 88.3444 20.1429L87.7156 20.4454L87.9411 19.767C88.0337 19.4883 88.1875 19.2043 88.3347 18.9525C88.5144 18.6449 88.7119 18.3459 88.9158 18.0549C89.1102 17.7775 89.3126 17.5047 89.5227 17.2397C89.671 17.0526 89.8301 16.8553 89.9973 16.6859L90.088 16.5941L90.2149 16.5991C95.1789 16.794 106.868 17.4493 110.373 21.2564L110.4 21.2865L110.419 21.3232C110.463 21.4073 110.618 21.6909 110.703 21.7139C110.756 21.7021 110.858 21.5661 110.883 21.5298C111.19 21.062 111.519 20.4248 111.357 19.8388C111.158 19.1221 110.276 18.6437 109.669 18.3734C109.406 18.2562 109.128 18.1597 108.854 18.0719C108.458 17.9444 108.055 17.8334 107.651 17.7312C106.517 17.444 105.358 17.2226 104.204 17.0383C100.798 16.4944 97.3005 16.2624 93.8565 16.2624H93.5962L93.5314 15.7283L93.7836 15.6618C95.0417 15.3298 96.3096 15.032 97.5706 14.7111C99.0183 14.3427 100.465 13.9523 101.888 13.4886C103.517 12.9571 106.954 11.7519 107.801 10.0885L107.803 10.0844L107.806 10.0804C108.069 9.59919 108.125 9.10382 107.775 8.65974C107.467 8.26853 106.935 8.0219 106.462 7.91684ZM93.8281 12.6043L92.9021 11.7429L93.3702 11.5718C94.8346 11.0365 96.3319 10.5784 97.8369 10.1818C99.2325 9.81413 100.649 9.49443 102.07 9.25017C102.662 9.14829 103.258 9.05927 103.855 8.99352C104.332 8.94103 104.816 8.90112 105.296 8.89728C105.747 8.89368 106.797 8.88676 106.939 9.48035L106.942 9.49525L106.944 9.51049C106.994 9.87376 106.716 10.1844 106.468 10.3991C106.116 10.7044 105.669 10.9633 105.262 11.1812C104.683 11.491 104.081 11.7646 103.479 12.0207C102.75 12.3306 102.011 12.6167 101.268 12.8884C99.6112 13.4947 97.9239 14.0358 96.2305 14.5228C94.672 14.9711 93.0836 15.3852 91.4941 15.6984L90.517 15.8909L93.8281 12.6043Z" fill="url(#paint0_linear_263_1866)"/>
<path d="M7.69865 22.1373H13.636L17.3611 14.1497H24.0901L25.5519 11.0154H6.15657L4.69482 14.1497H11.4238L7.69865 22.1373Z" fill="white"/>
<path d="M39.025 22.1373C39.27 22.1373 39.5575 22.0665 39.8874 21.9249C40.2173 21.7834 40.5393 21.6081 40.8535 21.3992C41.1678 21.1902 41.449 20.9711 41.6972 20.742C41.9455 20.5128 42.1136 20.3038 42.2016 20.1151L45.5023 13.0375C45.5841 12.8623 45.6093 12.6567 45.5779 12.4208C45.5466 12.1849 45.4713 11.9624 45.352 11.7535C45.2326 11.5445 45.0741 11.3693 44.8762 11.2277C44.6783 11.0861 44.4569 11.0154 44.2119 11.0154H29.312C29.0669 11.0154 28.7795 11.0861 28.4496 11.2277C28.1197 11.3693 27.7977 11.5445 27.4834 11.7535C27.1692 11.9624 26.8864 12.1849 26.635 12.4208C26.3837 12.6567 26.2171 12.8623 26.1354 13.0375L22.8346 20.1151C22.7466 20.3038 22.7198 20.5128 22.7543 20.742C22.7888 20.9711 22.8657 21.1902 22.985 21.3992C23.1043 21.6081 23.2629 21.7834 23.4607 21.9249C23.6587 22.0665 23.8801 22.1373 24.1251 22.1373H39.025ZM36.9527 18.6389C36.915 18.7198 36.8349 18.8007 36.7123 18.8816C36.5898 18.9624 36.4814 19.0029 36.3871 19.0029H29.6865C29.5734 19.0029 29.498 18.9624 29.4603 18.8816C29.4226 18.8007 29.4226 18.7198 29.4604 18.6389L31.3842 14.5137C31.4156 14.4463 31.4942 14.3688 31.6199 14.2812C31.7456 14.1935 31.8556 14.1497 31.9498 14.1497H38.6505C38.7448 14.1497 38.8154 14.1902 38.8625 14.2711C38.9096 14.3519 38.9143 14.4328 38.8765 14.5137L36.9527 18.6389Z" fill="white"/>
<path d="M55.4519 22.1373L52.5411 18.1334H50.5902L48.723 22.1373H42.7856L47.9725 11.0154H53.9098L52.0426 15.0192H53.9934L60.6388 11.0154H67.4526L58.2716 16.5763L62.2657 22.1373H55.4519Z" fill="white"/>
<path d="M80.106 22.1373C80.351 22.1373 80.6385 22.0665 80.9684 21.9249C81.2983 21.7834 81.6203 21.6081 81.9346 21.3992C82.2488 21.1902 82.53 20.9711 82.7782 20.742C83.0265 20.5128 83.1946 20.3038 83.2826 20.1151L86.5834 13.0375C86.6651 12.8623 86.6903 12.6567 86.6589 12.4208C86.6276 12.1849 86.5523 11.9624 86.433 11.7535C86.3137 11.5445 86.1551 11.3693 85.9572 11.2277C85.7594 11.0861 85.5379 11.0154 85.2929 11.0154H70.393C70.148 11.0154 69.8605 11.0861 69.5306 11.2277C69.2007 11.3693 68.8787 11.5445 68.5645 11.7535C68.2503 11.9624 67.9675 12.1849 67.7161 12.4208C67.4647 12.6567 67.2981 12.8623 67.2164 13.0375L63.9156 20.1151C63.8276 20.3038 63.8009 20.5128 63.8353 20.742C63.8698 20.9711 63.9468 21.1902 64.0661 21.3992C64.1854 21.6081 64.344 21.7834 64.5418 21.9249C64.7397 22.0665 64.9611 22.1373 65.2062 22.1373H80.106ZM78.0337 18.6389C77.996 18.7198 77.9159 18.8007 77.7934 18.8816C77.6708 18.9624 77.5625 19.0029 77.4681 19.0029H70.7675C70.6544 19.0029 70.579 18.9624 70.5413 18.8816C70.5037 18.8007 70.5037 18.7198 70.5414 18.6389L72.4653 14.5137C72.4967 14.4463 72.5753 14.3688 72.7009 14.2812C72.8267 14.1935 72.9366 14.1497 73.0308 14.1497H79.7315C79.8258 14.1497 79.8965 14.1902 79.9436 14.2711C79.9906 14.3519 79.9953 14.4328 79.9576 14.5137L78.0337 18.6389Z" fill="white"/>
<path fill-rule="evenodd" clip-rule="evenodd" d="M66.8406 16.2681L64.8394 20.5592C64.8397 20.5663 64.8409 20.5742 64.8417 20.5799C64.8571 20.6816 64.8925 20.775 64.943 20.8635C64.9887 20.9434 65.0473 21.0056 65.1211 21.0584C65.1499 21.079 65.1706 21.0836 65.2059 21.0836H80.1058C80.2466 21.0836 80.4501 21.0065 80.5777 20.9517C80.8586 20.8312 81.1275 20.683 81.3833 20.5129C81.6345 20.3459 81.8767 20.1616 82.0996 19.9559C82.1693 19.8915 82.322 19.7444 82.3648 19.6572L83.9454 16.2681H80.2703L78.9511 19.0967C78.8174 19.3835 78.5976 19.6006 78.3411 19.7698C78.0773 19.944 77.7841 20.0566 77.4679 20.0566H70.7672C70.2777 20.0566 69.8379 19.7999 69.6232 19.3389C69.4509 18.9689 69.451 18.5511 69.6235 18.1812L70.5157 16.2681H66.8406Z" fill="#DCDDDD"/>
<path fill-rule="evenodd" clip-rule="evenodd" d="M55.9605 21.0836H60.2398L56.7811 16.2681H46.654L44.4082 21.0836H48.0833L49.9506 17.0798H53.0497L55.9605 21.0836Z" fill="#DCDDDD"/>
<path fill-rule="evenodd" clip-rule="evenodd" d="M25.76 16.2681L23.7588 20.5593C23.7592 20.5664 23.7603 20.5742 23.7611 20.58C23.7764 20.6816 23.812 20.775 23.8624 20.8634C23.9081 20.9433 23.9666 21.0055 24.0405 21.0584C24.0692 21.079 24.09 21.0836 24.1253 21.0836H39.0252C39.166 21.0836 39.3695 21.0065 39.4971 20.9517C39.778 20.8312 40.047 20.683 40.3027 20.5129C40.5539 20.3459 40.7961 20.1616 41.019 19.9559C41.0887 19.8915 41.2414 19.7444 41.2842 19.6572L42.8648 16.2681H39.1897L37.8705 19.0967C37.7367 19.3835 37.5171 19.6006 37.2606 19.7698C36.9967 19.944 36.7036 20.0566 36.3873 20.0566H29.6866C29.1971 20.0566 28.7572 19.7999 28.5425 19.3387C28.3703 18.9688 28.3704 18.5511 28.5429 18.1812L29.4351 16.2681H25.76Z" fill="#DCDDDD"/>
<path fill-rule="evenodd" clip-rule="evenodd" d="M9.32129 21.0836H12.9964L15.2422 16.2681H11.5671L9.32129 21.0836Z" fill="#DCDDDD"/>
<path d="M24.4533 23.866L24.247 24.6328H23.8005L23.5919 25.4021H24.0368L23.9349 25.7876H23.4853L23.2798 26.556H23.7239L23.5177 27.3202H24.3838L24.59 26.556H25.0231L24.8168 27.3202H25.6829L25.8884 26.556H26.3356L26.5419 25.7876H26.0994L26.2013 25.4021H26.6478L26.8541 24.6328H26.4123L26.6178 23.866H25.7525L25.5462 24.6328H25.1132L25.3194 23.866H24.4533ZM24.9021 25.4021H25.3352L25.2332 25.7876H24.801L24.9021 25.4021ZM28.7854 23.866V27.3202H27.9193V24.8014L27.2713 25.0794V24.2696L28.2228 23.866H28.7854ZM31.5173 24.3049V27.3202H32.3344V25.5501L33.3665 27.0552H34.0453L35.0797 25.5501V27.3202H35.8976V24.3049H35.0687L33.7071 26.3297L32.3439 24.3049H31.5173ZM37.9365 24.3049L36.1751 27.3202H37.0593L37.437 26.6774H39.2127L39.5849 27.3202H40.4692L38.7101 24.3049H37.9365ZM38.3261 25.1543L38.8049 25.9761H37.844L38.3261 25.1543ZM40.7474 24.3049V27.3202H41.5645V26.2566H42.7333L43.5465 27.3202H44.5074L43.62 26.2334C43.8499 26.1886 44.042 26.0784 44.1944 25.9029C44.347 25.7222 44.4236 25.514 44.4236 25.2807C44.4236 25.0071 44.3272 24.7765 44.1344 24.5897C43.9448 24.3996 43.7124 24.3049 43.4374 24.3049H40.7474ZM41.5645 25.0389H43.3655C43.4445 25.0372 43.5046 25.0587 43.5465 25.1043C43.5907 25.15 43.6136 25.2093 43.6136 25.2834C43.6136 25.3574 43.5907 25.4167 43.5465 25.4623C43.5046 25.5079 43.4445 25.5303 43.3655 25.5303C43.1901 25.5303 42.5895 25.5303 41.5645 25.5303V25.0389ZM44.9239 24.3049V27.3202H45.7433V25.9261L47.6344 27.3202H48.9842L46.7177 25.7222L48.8411 24.3049H47.4866L45.7433 25.5277V24.3049H44.9239ZM49.2623 24.3049V27.3202H52.6746V26.5862H50.0818V26.1602H52.33V25.4391H50.0818V25.0389H52.6746V24.3049H49.2623ZM53.0918 24.3049V25.0389H54.4898V27.3202H55.3053V25.0389H56.7033V24.3049H53.0918ZM57.1205 24.3049V27.3202H57.9352V26.4029H59.8199C60.1132 26.4029 60.362 26.3005 60.5675 26.0974C60.7761 25.8909 60.8796 25.6439 60.8781 25.3565C60.8796 25.0656 60.7761 24.8178 60.5675 24.6121C60.3605 24.4073 60.1115 24.3049 59.8199 24.3049H57.1205ZM57.9352 25.0389H59.7504C59.846 25.0372 59.9242 25.0665 59.9843 25.1267C60.0444 25.1844 60.0744 25.2601 60.0744 25.3565C60.0744 25.4485 60.0444 25.5251 59.9843 25.5854C59.9242 25.6396 59.846 25.6689 59.7504 25.674H57.9352V25.0389ZM61.2969 24.3049V27.3202H64.5725V26.5862H62.1164V24.3049H61.2969ZM66.6121 24.3049L64.8506 27.3202H65.7349L66.1126 26.6774H67.8883L68.2605 27.3202H69.1448L67.3858 24.3049H66.6121ZM67.0017 25.1543L67.4805 25.9761H66.5196L67.0017 25.1543ZM70.3302 24.3049C70.0836 24.3049 69.8695 24.3927 69.6893 24.5674C69.5163 24.7421 69.4278 24.9537 69.423 25.2024V26.4253C69.423 26.6723 69.5108 26.8831 69.6869 27.0578C69.8656 27.2324 70.0805 27.3202 70.3302 27.3202H72.377C72.6314 27.3202 72.8456 27.2333 73.0186 27.0603C73.1988 26.884 73.2873 26.6723 73.2841 26.4253V26.1981H72.467V26.2842C72.4686 26.3668 72.4394 26.4382 72.3793 26.4984C72.3224 26.5517 72.2497 26.5819 72.1612 26.5862H70.5459C70.4622 26.5819 70.3903 26.5517 70.3302 26.4984C70.2701 26.4382 70.2401 26.3668 70.2401 26.2842V25.341C70.2401 25.2558 70.2694 25.1844 70.3278 25.1267C70.3895 25.0665 70.4622 25.0372 70.5459 25.0389H72.1612C72.2466 25.0372 72.3185 25.0665 72.377 25.1267C72.437 25.1844 72.467 25.2558 72.467 25.341V25.4296H73.2841V25.2024C73.2889 24.9537 73.2012 24.7421 73.0202 24.5674C72.8447 24.3927 72.6298 24.3049 72.377 24.3049H70.3302ZM73.7085 24.3049V27.3202H77.1208V26.5862H74.528V26.1602H76.7762V25.4391H74.528V25.0389H77.1208V24.3049H73.7085ZM79.8535 24.3049V27.3202H80.6705V26.2566H81.8393L82.6525 27.3202H83.6134L82.726 26.2334C82.9559 26.1886 83.148 26.0784 83.3005 25.9029C83.453 25.7222 83.5296 25.514 83.5296 25.2807C83.5296 25.0071 83.4333 24.7765 83.2404 24.5897C83.0508 24.3996 82.8184 24.3049 82.5434 24.3049H79.8535ZM80.6705 25.0389H82.4715C82.5506 25.0372 82.6106 25.0587 82.6525 25.1043C82.6967 25.15 82.7197 25.2093 82.7197 25.2834C82.7197 25.3574 82.6967 25.4167 82.6525 25.4623C82.6106 25.5079 82.5506 25.5303 82.4715 25.5303C82.2961 25.5303 81.6955 25.5303 80.6705 25.5303V25.0389ZM85.6522 24.3049L83.8908 27.3202H84.775L85.1528 26.6774H86.9285L87.3007 27.3202H88.185L86.4259 24.3049H85.6522ZM86.0419 25.1543L86.5207 25.9761H85.5598L86.0419 25.1543ZM89.3703 24.3049C89.1238 24.3049 88.9097 24.3927 88.7295 24.5674C88.5564 24.7421 88.4679 24.9537 88.4632 25.2024V26.4253C88.4632 26.6723 88.5509 26.8831 88.7271 27.0578C88.9057 27.2324 89.1206 27.3202 89.3703 27.3202H91.4171C91.6716 27.3202 91.8857 27.2333 92.0588 27.0603C92.239 26.884 92.3274 26.6723 92.3243 26.4253V26.1981H91.5071V26.2842C91.5088 26.3668 91.4795 26.4382 91.4195 26.4984C91.3626 26.5517 91.2899 26.5819 91.2014 26.5862H89.5861C89.5023 26.5819 89.4304 26.5517 89.3703 26.4984C89.3103 26.4382 89.2803 26.3668 89.2803 26.2842V25.341C89.2803 25.2558 89.3095 25.1844 89.368 25.1267C89.4296 25.0665 89.5023 25.0372 89.5861 25.0389H91.2014C91.2867 25.0372 91.3586 25.0665 91.4171 25.1267C91.4772 25.1844 91.5071 25.2558 91.5071 25.341V25.4296H92.3243V25.2024C92.3291 24.9537 92.2413 24.7421 92.0603 24.5674C91.8849 24.3927 91.67 24.3049 91.4171 24.3049H89.3703ZM92.7487 24.3049V27.3202H93.5634V24.3049H92.7487ZM93.9807 24.3049V27.3202H94.7977V25.3109L97.0737 27.3202H97.8679V24.3049H97.0499V26.3142L94.7725 24.3049H93.9807ZM99.1915 24.3049C98.945 24.3049 98.7309 24.3927 98.5507 24.5674C98.3776 24.7421 98.2891 24.9537 98.2843 25.2024V26.4253C98.2843 26.6723 98.3721 26.8831 98.5483 27.0578C98.7269 27.2324 98.9418 27.3202 99.1915 27.3202H102.206V25.5097H100.469V26.211H101.388V26.5862H99.4073C99.3236 26.5819 99.2516 26.5517 99.1915 26.4984C99.1315 26.4382 99.1014 26.3668 99.1014 26.2842V25.341C99.1014 25.2558 99.1307 25.1844 99.1892 25.1267C99.2508 25.0665 99.3236 25.0372 99.4073 25.0389H102.111V24.3049H99.1915ZM104.938 24.3049V27.3202H108.35V26.5862H105.758V26.1602H108.006V25.4391H105.758V25.0389H108.35V24.3049H104.938ZM109.673 24.3049C109.426 24.3049 109.212 24.3927 109.032 24.5674C108.855 24.7421 108.768 24.9537 108.768 25.2024V26.4253C108.768 26.6723 108.855 26.8831 109.032 27.0578C109.212 27.2324 109.426 27.3202 109.673 27.3202H110.784L111.115 27.8925H112.001L111.669 27.3202H111.782C112.036 27.3202 112.25 27.2333 112.423 27.0603C112.604 26.884 112.693 26.6723 112.69 26.4253V25.2024C112.694 24.9537 112.606 24.7421 112.426 24.5674C112.25 24.3927 112.035 24.3049 111.782 24.3049H109.673ZM109.891 25.0389H111.567C111.651 25.0372 111.723 25.0665 111.782 25.1267C111.842 25.1844 111.872 25.2558 111.872 25.341V26.2842C111.873 26.3668 111.844 26.4382 111.784 26.4984C111.727 26.5517 111.654 26.5819 111.567 26.5862H109.891C109.807 26.5819 109.735 26.5517 109.675 26.4984C109.615 26.4382 109.585 26.3668 109.585 26.2842V25.341C109.585 25.2558 109.614 25.1844 109.673 25.1267C109.734 25.0665 109.807 25.0372 109.891 25.0389ZM113.113 24.3049V26.4226C113.113 26.6696 113.201 26.8813 113.377 27.0578C113.556 27.2324 113.771 27.3202 114.02 27.3202H115.956C116.211 27.3202 116.424 27.2324 116.597 27.0578C116.778 26.8813 116.867 26.6696 116.864 26.4226V24.3049H116.044V26.2842C116.047 26.3668 116.018 26.4382 115.956 26.4984C115.897 26.5517 115.825 26.5819 115.738 26.5862H114.236C114.152 26.5819 114.081 26.5517 114.02 26.4984C113.96 26.4382 113.93 26.3668 113.93 26.2842V24.3049H113.113ZM117.285 24.3049V27.3202H118.1V24.3049H117.285ZM118.517 24.3049V27.3202H119.332V26.4029H121.216C121.51 26.4029 121.759 26.3005 121.964 26.0974C122.173 25.8909 122.276 25.6439 122.275 25.3565C122.276 25.0656 122.173 24.8178 121.964 24.6121C121.757 24.4073 121.508 24.3049 121.216 24.3049H118.517ZM119.332 25.0389H121.147C121.243 25.0372 121.321 25.0665 121.381 25.1267C121.441 25.1844 121.471 25.2601 121.471 25.3565C121.471 25.4485 121.441 25.5251 121.381 25.5854C121.321 25.6396 121.243 25.6689 121.147 25.674H119.332V25.0389ZM122.693 24.3049V27.3202H123.511V25.5501L124.543 27.0552H125.221L126.256 25.5501V27.3202H127.074V24.3049H126.245L124.883 26.3297L123.52 24.3049H122.693ZM127.49 24.3049V27.3202H130.903V26.5862H128.31V26.1602H130.558V25.4391H128.31V25.0389H130.903V24.3049H127.49ZM131.32 24.3049V27.3202H132.137V25.3109L134.413 27.3202H135.207V24.3049H134.389V26.3142L132.112 24.3049H131.32ZM135.623 24.3049V25.0389H137.021V27.3202H137.837V25.0389H139.235V24.3049H135.623Z" fill="white"/>
<path fill-rule="evenodd" clip-rule="evenodd" d="M16.9556 23.2841H17.9069C17.9069 23.4371 17.9467 23.5901 18.0264 23.7328L19.1839 25.8064H16.9556V23.2841Z" fill="white"/>
<path fill-rule="evenodd" clip-rule="evenodd" d="M20.7524 28.3287H19.3945V26.1834L20.1224 27.4874C20.2993 27.8043 20.5114 28.0859 20.7524 28.3287Z" fill="white"/>
<path fill-rule="evenodd" clip-rule="evenodd" d="M12.0781 23.2841H14.5169V25.8064H12.0781V23.2841Z" fill="white"/>
<path fill-rule="evenodd" clip-rule="evenodd" d="M7.2002 23.2841H9.63901V25.8064H7.2002V23.2841Z" fill="white"/>
<path fill-rule="evenodd" clip-rule="evenodd" d="M14.5166 25.8064H16.9554V28.3287H14.5166V25.8064Z" fill="white"/>
<path fill-rule="evenodd" clip-rule="evenodd" d="M9.63916 25.8064H12.0779V28.3287H9.63916V25.8064Z" fill="white"/>
<path fill-rule="evenodd" clip-rule="evenodd" d="M145.559 23.2841H144.608C144.608 23.4371 144.568 23.5901 144.488 23.7328L143.331 25.8064H145.559V23.2841Z" fill="white"/>
<path fill-rule="evenodd" clip-rule="evenodd" d="M141.762 28.3287H143.12V26.1834L142.392 27.4874C142.215 27.8043 142.003 28.0859 141.762 28.3287Z" fill="white"/>
<path fill-rule="evenodd" clip-rule="evenodd" d="M150.436 23.2841H147.998V25.8064H150.436V23.2841Z" fill="white"/>
<path fill-rule="evenodd" clip-rule="evenodd" d="M155.314 23.2841H152.875V25.8064H155.314V23.2841Z" fill="white"/>
<path fill-rule="evenodd" clip-rule="evenodd" d="M147.998 25.8064H145.559V28.3287H147.998V25.8064Z" fill="white"/>
<path fill-rule="evenodd" clip-rule="evenodd" d="M152.875 25.8064H150.437V28.3287H152.875V25.8064Z" fill="white"/>
</g>
<defs>
<linearGradient id="paint0_linear_263_1866" x1="128.011" y1="16.8486" x2="128.011" y2="10.0934" gradientUnits="userSpaceOnUse">
<stop stop-color="#FF0000"/>
<stop offset="1" stop-color="#FFFF00"/>
</linearGradient>
<clipPath id="clip0_263_1866">
<rect width="159.313" height="32.8198" fill="white" transform="translate(0.34375)"/>
</clipPath>
</defs>
</svg>
